<svg width="24" height="24" viewBox="0 0 24 24" fill="none" xmlns="http://www.w3.org/2000/svg">
<path d="M21.4274 4.28468H2.5718C2.3446 4.2852 2.12684 4.37562 1.96609 4.53619C1.80533 4.69675 1.71466 4.91441 1.71387 5.14161V18.8556C1.71466 19.0826 1.8052 19.3001 1.96573 19.4606C2.12627 19.6212 2.34377 19.7117 2.5708 19.7125H21.4284C21.6554 19.7117 21.8729 19.6212 22.0334 19.4606C22.194 19.3001 22.2845 19.0826 22.2853 18.8556V5.14161C22.2845 4.91458 22.194 4.69708 22.0334 4.53654C21.8729 4.376 21.6544 4.28547 21.4274 4.28468ZM18.7706 5.99955L11.9991 10.9272L5.2296 5.99855H18.7716L18.7706 5.99955ZM3.42774 17.9986V6.81349L11.4841 12.684C11.6312 12.7977 11.8123 12.8583 11.9981 12.856C12.1839 12.8583 12.365 12.7977 12.5121 12.684L20.5694 6.81349V17.9976L3.42774 17.9986Z" fill="#4B5563"/>
</svg>
