<svg width="24" height="24" viewBox="0 0 24 24" fill="none" xmlns="http://www.w3.org/2000/svg">
<path fill-rule="evenodd" clip-rule="evenodd" d="M17.1417 8.56934H19.7125C19.9395 8.57013 20.157 8.66067 20.3176 8.82121C20.4781 8.98174 20.5686 9.19925 20.5694 9.42628V19.7115C20.5673 20.3927 20.2958 21.0453 19.8141 21.527C19.3325 22.0087 18.6798 22.2802 17.9986 22.2823H5.99954C5.3182 22.2805 4.66527 22.0091 4.18339 21.5274C3.70151 21.0457 3.42985 20.3928 3.42773 19.7115V9.42628C3.42853 9.19908 3.5192 8.98142 3.67995 8.82086C3.8407 8.66029 4.05847 8.56987 4.28567 8.56934H6.85648V6.85547C6.85648 4.02669 9.1703 1.71286 11.9991 1.71286C14.8279 1.71286 17.1417 4.02669 17.1417 6.85547V8.56934ZM11.9991 3.42673C11.0904 3.42911 10.2195 3.79108 9.57687 4.43355C8.93421 5.07602 8.57199 5.94675 8.56935 6.85547V8.56934H15.4258V6.85547C15.4232 5.94727 15.0614 5.07699 14.4194 4.4346C13.7774 3.79222 12.9073 3.4299 11.9991 3.42673ZM17.9986 20.5684C18.2257 20.5677 18.4432 20.4771 18.6037 20.3166C18.7642 20.156 18.8548 19.9385 18.8556 19.7115V10.2832H5.14261V19.7115C5.1434 19.9385 5.23393 20.156 5.39447 20.3166C5.555 20.4771 5.77251 20.5677 5.99954 20.5684H17.9986ZM11.1422 18.8526V16.0228C10.6272 15.7668 10.2842 15.2098 10.2842 14.5669C10.2858 14.1127 10.467 13.6775 10.7883 13.3564C11.1096 13.0353 11.5449 12.8543 11.9991 12.853C12.4531 12.8546 12.8882 13.0357 13.2092 13.3567C13.5303 13.6778 13.7114 14.1128 13.713 14.5669C13.713 15.1668 13.37 15.7238 12.856 16.0238V18.8526H11.1422Z" fill="black"/>
</svg>
