<svg width="24" height="24" viewBox="0 0 24 24" fill="none" xmlns="http://www.w3.org/2000/svg">
<path d="M20.5707 14.999C19.0278 14.999 18.8558 13.7991 18.8558 13.2842V8.99949C18.8558 5.22777 15.771 2.14301 11.9993 2.14301C8.22959 2.14301 5.14283 5.22777 5.14283 8.99949V13.2842C5.14283 13.7991 4.97184 14.999 3.42896 14.999C3.20193 14.9998 2.98442 15.0904 2.82389 15.2509C2.66335 15.4114 2.57281 15.6289 2.57202 15.856V18.4268C2.57281 18.6538 2.66335 18.8713 2.82389 19.0319C2.98442 19.1924 3.20193 19.2829 3.42896 19.2837H9.4285C9.43035 19.9651 9.70176 20.618 10.1835 21.0999C10.6651 21.5817 11.318 21.8534 11.9993 21.8555C12.6808 21.8537 13.3339 21.5821 13.8158 21.1002C14.2977 20.6183 14.5693 19.9652 14.5711 19.2837H20.5707C20.7977 19.2829 21.0152 19.1924 21.1757 19.0319C21.3363 18.8713 21.4268 18.6538 21.4276 18.4268V15.856C21.4268 15.6289 21.3363 15.4114 21.1757 15.2509C21.0152 15.0904 20.7977 14.9998 20.5707 14.999ZM11.9993 20.1417C11.7721 20.1409 11.5544 20.0502 11.3939 19.8894C11.2333 19.7287 11.1429 19.5109 11.1424 19.2837H12.8562C12.8557 19.5109 12.7653 19.7287 12.6047 19.8894C12.4442 20.0502 12.2265 20.1409 11.9993 20.1417ZM19.7127 17.5698H4.28589V16.6269C6.04276 16.2839 6.8567 14.7841 6.8567 13.2842V8.99949C6.8567 6.1707 9.17152 3.85688 11.9993 3.85688C14.8281 3.85688 17.1419 6.1707 17.1419 8.99949V13.2842C17.1419 14.7841 17.9559 16.2839 19.7127 16.6269V17.5698Z" fill="black"/>
</svg>
