<svg width="24" height="24" viewBox="0 0 24 24" fill="none" xmlns="http://www.w3.org/2000/svg">
<path fill-rule="evenodd" clip-rule="evenodd" d="M8.57038 1.71106C7.88856 1.71106 7.23466 1.98191 6.75254 2.46403C6.27042 2.94615 5.99957 3.60005 5.99957 4.28187V19.7097C5.99957 20.0473 6.06607 20.3816 6.19526 20.6935C6.32446 21.0054 6.51382 21.2888 6.75254 21.5275C6.99127 21.7663 7.27467 21.9556 7.58657 22.0848C7.89848 22.214 8.23278 22.2805 8.57038 22.2805H15.4279C15.7655 22.2805 16.0998 22.214 16.4117 22.0848C16.7236 21.9556 17.007 21.7663 17.2457 21.5275C17.4844 21.2888 17.6738 21.0054 17.803 20.6935C17.9322 20.3816 17.9987 20.0473 17.9987 19.7097V4.28187C17.9987 3.60005 17.7278 2.94615 17.2457 2.46403C16.7636 1.98191 16.1097 1.71106 15.4279 1.71106H8.56938H8.57038ZM7.71344 4.28187C7.71344 3.8089 8.09741 3.42493 8.57038 3.42493H10.4002C10.3249 3.5552 10.2852 3.70301 10.2851 3.85349C10.2851 4.00397 10.3246 4.15182 10.3998 4.28216C10.475 4.4125 10.5832 4.52074 10.7136 4.59599C10.8439 4.67124 10.9917 4.71085 11.1422 4.71083H12.8561C13.0066 4.71103 13.1546 4.67155 13.285 4.59637C13.4155 4.52119 13.5238 4.41297 13.5992 4.28259C13.6745 4.15222 13.7141 4.00431 13.7141 3.85374C13.7141 3.70318 13.6744 3.55527 13.599 3.42493H15.4279C15.9008 3.42493 16.2848 3.8089 16.2848 4.28187V19.7097C16.2848 19.937 16.1945 20.1549 16.0338 20.3157C15.8731 20.4764 15.6551 20.5666 15.4279 20.5666H8.56938C8.34211 20.5666 8.12414 20.4764 7.96343 20.3157C7.80273 20.1549 7.71244 19.937 7.71244 19.7097V4.28187H7.71344Z" fill="#4B5563"/>
</svg>
