<svg width="22" height="22" viewBox="0 0 22 22" fill="none" xmlns="http://www.w3.org/2000/svg">
<path d="M19.6555 2.34505C19.0765 1.76252 18.3884 1.29979 17.6304 0.983311C16.8725 0.666834 16.0597 0.502809 15.2383 0.50061H15.2092C13.4518 0.50061 11.7357 1.24916 10.3747 2.61031C8.9882 3.99688 7.85528 6.10386 7.34415 8.24656C7.21507 8.78079 7.1295 9.3246 7.08826 9.87266C7.03507 10.7205 6.79043 11.5453 6.37272 12.285C6.08025 12.7907 5.72264 13.2558 5.30908 13.6684L1.59259 17.4751C1.01186 18.0578 0.950029 18.657 1.00075 19.0574C1.05953 19.5224 1.30661 19.9842 1.71526 20.3929C2.12392 20.8016 2.58597 21.0487 3.05078 21.1074C3.12469 21.1168 3.19912 21.1215 3.27362 21.1215C3.65744 21.1215 4.15276 20.9959 4.63647 20.5121L8.35262 16.7059C8.79647 16.2614 9.30099 15.8819 9.85117 15.5788C10.5548 15.1999 11.3318 14.9769 12.1293 14.9252C12.6806 14.883 13.2275 14.7958 13.7646 14.6645C15.8995 14.1493 18.0025 13.0132 19.3901 11.6256C20.7588 10.2568 21.508 8.52959 21.4997 6.76199C21.4975 5.94071 21.3335 5.12791 21.0171 4.37003C20.7006 3.61216 20.238 2.92406 19.6555 2.34505ZM3.57297 19.4544C3.38809 19.638 3.27972 19.6243 3.23884 19.6193C3.11092 19.6031 2.94222 19.4985 2.77595 19.3322C2.60969 19.166 2.50506 18.9972 2.48889 18.8693C2.48369 18.8282 2.4699 18.7193 2.65656 18.5324L5.62722 15.4897L6.54644 16.4089L3.57297 19.4544ZM7.60656 15.3477L6.67037 14.4116C7.04775 13.9926 7.38057 13.5356 7.66347 13.0479C7.97056 13.5954 8.42278 14.0476 8.97034 14.3546C8.48257 14.6375 8.02552 14.9703 7.60656 15.3477V15.3477ZM18.3297 10.5652C17.1468 11.748 15.2628 12.7602 13.4129 13.2066C11.5719 13.6509 10.0297 13.4731 9.28736 12.7309C7.70472 11.1481 8.86909 6.23717 11.4354 3.67086C12.6103 2.49599 13.9432 2.00642 15.1944 2.00642C16.4679 2.00714 17.6897 2.50992 18.5949 3.40569C20.266 5.07678 20.7409 8.15389 18.3297 10.5652Z" fill="#4B5563"/>
</svg>
